<?xml version="1.0" standalone="no"?>
<!DOCTYPE svg PUBLIC "-//W3C//DTD SVG 20010904//EN"
 "http://www.w3.org/TR/2001/REC-SVG-20010904/DTD/svg10.dtd">
<svg version="1.0" xmlns="http://www.w3.org/2000/svg"
 width="160.000000pt" height="160.000000pt" viewBox="0 0 160.000000 160.000000"
 preserveAspectRatio="xMidYMid meet">
<metadata>
Created by potrace 1.14, written by Peter Selinger 2001-2017
</metadata>
<g transform="translate(0.000000,160.000000) scale(0.100000,-0.100000)"
fill="#000000" stroke="none">
<path d="M197 1166 c-64 -45 -135 -93 -157 -106 -27 -17 -40 -32 -40 -47 0
-27 -12 -33 189 102 l133 90 76 -81 c43 -44 138 -145 212 -224 74 -79 143
-152 153 -162 11 -12 32 -18 65 -19 57 0 730 0 755 0 11 1 17 9 17 25 0 27 -2
30 -89 106 -62 54 -72 70 -47 70 39 0 29 27 -38 105 l-35 40 -113 7 c-62 3
-124 9 -138 12 -100 23 -120 30 -136 47 -14 16 -31 19 -99 19 -59 0 -152 14
-329 50 -136 28 -250 50 -254 49 -4 0 -60 -37 -125 -83z m816 -135 c35 -45 37
-53 37 -118 l0 -70 -105 2 -104 1 -70 67 -70 67 77 0 77 0 55 50 c30 27 57 50
60 50 3 0 23 -22 43 -49z m392 -45 c21 -27 27 -48 29 -95 l2 -61 -81 0 -81 0
-57 58 -56 57 62 -1 c59 -1 64 1 102 38 22 21 43 38 47 38 4 0 19 -15 33 -34z"/>
<path d="M918 993 c-3 -10 -2 -27 2 -38 4 -11 4 -29 0 -40 -13 -39 -2 -53 44
-53 l42 0 0 71 -1 72 -41 3 c-33 2 -42 -1 -46 -15z m49 -58 c0 -8 -4 -12 -9
-9 -5 3 -6 10 -3 15 9 13 12 11 12 -6z"/>
<path d="M1332 960 c-6 -4 -7 -64 -3 -106 1 -6 16 -10 34 -9 l32 2 2 59 3 60
-31 -1 c-17 0 -34 -2 -37 -5z m41 -57 c-7 -2 -19 -2 -25 0 -7 3 -2 5 12 5 14
0 19 -2 13 -5z"/>
<path d="M0 670 c0 -7 273 -10 800 -10 527 0 800 3 800 10 0 7 -273 10 -800
10 -527 0 -800 -3 -800 -10z"/>
<path d="M4 614 c3 -9 6 -40 6 -70 0 -40 4 -54 15 -54 10 0 15 15 17 58 2 41
7 57 17 57 8 0 16 6 19 13 2 8 -9 12 -38 12 -34 0 -41 -3 -36 -16z"/>
<path d="M102 588 c-28 -64 -35 -98 -20 -98 7 0 19 9 26 20 13 21 39 17 59 -9
8 -11 15 -13 21 -6 12 14 -36 135 -53 135 -8 0 -23 -19 -33 -42z m40 -26 c3
-11 0 -19 -8 -19 -15 0 -19 19 -7 30 9 10 10 9 15 -11z"/>
<path d="M215 618 c-2 -7 -3 -39 -2 -70 1 -63 20 -80 31 -28 7 38 16 38 38 0
9 -17 24 -30 33 -30 20 0 19 5 -10 48 l-25 36 27 28 c26 27 26 28 6 28 -12 0
-30 -11 -41 -25 -11 -14 -23 -25 -26 -25 -3 0 -6 11 -6 25 0 26 -17 35 -25 13z"/>
<path d="M349 629 c-1 -2 -2 -34 -3 -71 -2 -48 1 -68 10 -68 7 0 14 10 16 22
2 15 13 24 34 30 23 6 34 16 38 34 4 15 3 31 -2 36 -10 10 -91 24 -93 17z m61
-54 c-13 -16 -40 -9 -40 9 0 21 12 26 32 15 15 -8 17 -13 8 -24z"/>
<path d="M469 618 c-5 -60 -3 -121 4 -125 12 -7 20 4 22 29 2 33 18 32 38 -2
10 -16 25 -30 33 -30 18 0 18 10 -2 38 -13 20 -14 24 -1 37 12 11 14 51 3 56
0 0 -22 3 -48 6 -36 4 -48 2 -49 -9z m72 -33 c0 -16 -33 -18 -42 -4 -4 7 -6
16 -3 21 6 10 46 -5 45 -17z"/>
<path d="M613 610 c-16 -15 -21 -29 -18 -57 8 -89 125 -83 125 7 0 62 -63 92
-107 50z m77 -51 c0 -30 -27 -53 -47 -41 -6 4 -14 19 -18 33 -5 21 -2 30 16
43 29 20 49 5 49 -35z"/>
<path d="M740 557 c0 -50 3 -68 13 -65 6 3 13 17 15 31 3 21 9 27 28 27 16 0
24 5 21 13 -2 6 -14 11 -25 11 -13 -1 -22 5 -22 12 0 13 18 19 48 15 6 -1 12
5 12 13 0 11 -11 14 -45 13 l-45 -1 0 -69z"/>
<path d="M857 624 c-4 -4 -7 -36 -7 -71 0 -49 3 -63 15 -63 10 0 15 10 15 30
0 27 3 30 30 30 17 0 30 5 30 10 0 10 -13 14 -42 11 -11 -2 -18 5 -18 16 0 14
8 18 30 18 16 0 31 5 32 10 3 12 -74 20 -85 9z"/>
<path d="M976 617 c-24 -17 -14 -53 17 -63 12 -3 28 -11 35 -17 11 -9 11 -12
-5 -18 -11 -4 -25 0 -36 9 -21 19 -35 8 -21 -16 21 -32 88 -27 97 7 6 26 -10
47 -48 61 -23 9 -26 13 -15 20 10 6 20 4 31 -6 21 -19 37 0 19 21 -15 19 -50
19 -74 2z"/>
<path d="M1089 628 c-1 -2 -2 -33 -3 -70 l-2 -68 47 0 c30 0 49 5 52 14 4 9
-3 13 -21 14 -47 0 -52 2 -52 17 0 11 11 15 36 15 42 0 43 23 1 25 -52 3 -50
26 2 27 52 2 39 28 -14 28 -25 0 -45 -1 -46 -2z"/>
<path d="M1209 613 c-5 -85 -2 -117 9 -121 11 -3 17 27 13 68 -1 8 11 -4 26
-27 41 -63 53 -56 53 27 0 39 -4 70 -9 70 -13 0 -19 -21 -16 -53 4 -37 -6 -34
-30 10 -23 41 -44 54 -46 26z"/>
<path d="M1415 620 c-3 -5 -12 -29 -19 -52 -8 -24 -17 -51 -21 -60 -5 -13 -3
-18 8 -18 8 0 17 7 21 15 3 8 17 15 31 15 14 0 28 -7 31 -15 5 -13 34 -22 34
-10 0 5 -11 33 -35 93 -17 40 -37 53 -50 32z m28 -73 c-3 -5 -10 -4 -15 1 -6
6 -7 16 -3 22 6 9 9 9 16 -1 4 -7 5 -17 2 -22z"/>
<path d="M1517 623 c-2 -4 -4 -35 -3 -68 l1 -60 43 -3 c33 -2 42 0 42 13 0 11
-7 14 -24 11 -21 -4 -36 9 -36 30 0 10 49 3 54 -8 3 -7 4 10 3 37 -2 50 -2 50
-39 53 -20 2 -38 -1 -41 -5z m73 -34 c0 -5 -3 -9 -7 -10 -5 0 -16 -2 -25 -4
-20 -4 -25 21 -5 28 16 5 37 -3 37 -14z"/>
<path d="M0 450 c0 -6 55 -10 145 -10 158 0 165 -2 145 -55 -6 -15 -8 -31 -4
-34 4 -3 9 0 11 6 3 10 10 10 25 2 28 -15 29 -10 7 35 -21 45 -22 46 -11 45 4
-1 294 -1 645 0 417 1 637 4 637 11 0 7 -273 10 -800 10 -527 0 -800 -3 -800
-10z"/>
<path d="M799 428 c0 -2 -2 -10 -4 -18 -2 -8 -7 -26 -11 -39 -6 -21 -5 -22 15
-12 11 7 21 8 21 3 0 -5 23 -10 50 -11 42 -1 50 2 50 16 1 17 1 17 11 1 16
-29 29 -21 29 17 0 19 -4 35 -10 35 -5 0 -7 -7 -4 -15 4 -8 1 -15 -5 -15 -6 0
-11 7 -11 15 0 8 -6 15 -13 15 -9 0 -13 -11 -12 -30 2 -26 -1 -31 -19 -28 -16
2 -21 10 -20 31 1 15 -3 27 -7 27 -5 0 -9 -11 -9 -25 0 -35 -19 -31 -26 5 -4
17 -10 30 -15 30 -5 0 -9 -1 -10 -2z"/>
<path d="M3 385 c0 -19 4 -35 9 -35 4 0 8 10 8 23 0 13 5 28 12 35 9 9 7 12
-8 12 -17 0 -21 -6 -21 -35z"/>
<path d="M45 388 c-13 -33 -11 -54 4 -29 10 16 22 16 32 0 14 -24 19 -3 7 29
-16 40 -25 40 -43 0z"/>
<path d="M106 393 c1 -16 2 -32 3 -37 1 -6 7 -2 14 8 12 17 14 17 20 2 4 -9
12 -16 19 -16 9 0 9 3 0 12 -7 7 -12 20 -12 31 0 30 34 16 41 -18 6 -27 8 -24
13 17 2 25 25 17 31 -11 9 -41 28 -39 41 4 6 19 7 35 3 35 -4 0 -11 -10 -15
-22 l-7 -23 -8 23 c-7 19 -16 22 -57 22 -26 0 -53 -5 -60 -12 -9 -9 -12 -9
-12 0 0 7 -4 12 -8 12 -5 0 -8 -12 -6 -27z"/>
<path d="M348 413 c6 -2 12 -18 12 -34 0 -16 5 -29 11 -29 6 0 8 8 5 18 -3 9
-2 23 3 31 13 21 41 5 41 -24 0 -14 4 -25 9 -25 4 0 7 11 6 25 -2 15 3 29 13
35 12 7 -1 9 -48 9 -36 0 -59 -3 -52 -6z"/>
<path d="M525 404 c9 -9 14 -23 11 -30 -3 -7 -1 -16 4 -19 6 -4 10 7 10 24 0
16 6 32 13 34 6 3 -3 6 -21 6 -31 1 -32 0 -17 -15z"/>
<path d="M574 385 c-10 -33 -3 -48 12 -24 4 8 9 8 17 0 15 -15 44 -14 50 2 4
10 7 10 18 0 7 -7 21 -13 30 -13 10 0 20 6 22 13 4 9 6 8 6 -2 1 -11 4 -11 18
0 11 10 14 10 9 2 -4 -7 -2 -13 3 -13 6 0 11 16 11 35 0 38 -13 46 -29 18 -10
-17 -10 -17 -11 0 0 9 -7 17 -16 17 -12 0 -15 -7 -12 -30 5 -34 -6 -40 -22
-11 -7 14 -6 21 3 24 6 2 9 8 5 12 -4 4 -14 2 -23 -5 -12 -10 -15 -10 -15 1 0
12 -2 12 -9 0 -5 -7 -6 -22 -4 -32 8 -31 -7 -22 -18 11 -14 40 -32 38 -45 -5z"/>
<path d="M970 385 c0 -19 5 -35 11 -35 5 0 7 5 4 10 -3 6 -1 10 4 10 6 0 11
-6 12 -12 0 -7 4 -4 9 7 7 18 8 19 15 3 12 -29 25 -20 25 17 0 19 -4 35 -10
35 -5 0 -7 -7 -4 -15 8 -20 -6 -19 -22 3 -12 16 -13 15 -14 -6 0 -13 -4 -21
-10 -17 -5 3 -7 12 -3 20 3 8 0 15 -6 15 -6 0 -11 -16 -11 -35z"/>
<path d="M1067 406 c-12 -31 -1 -51 29 -51 29 0 42 24 17 33 -7 2 -13 -4 -13
-14 0 -13 -3 -15 -11 -7 -16 16 -3 47 16 39 8 -3 15 -1 15 4 0 15 -47 12 -53
-4z"/>
<path d="M1190 409 c0 -5 5 -7 10 -4 6 4 10 -7 10 -24 0 -38 15 -41 18 -4 1
15 8 30 15 35 7 5 -1 8 -20 8 -18 0 -33 -5 -33 -11z"/>
<path d="M1252 388 c-12 -34 -7 -52 8 -28 7 12 12 12 22 2 6 -6 21 -11 33 -11
15 1 16 2 3 6 -9 2 -21 17 -27 34 -13 37 -24 37 -39 -3z"/>
<path d="M1317 413 c-14 -13 -7 -45 8 -39 8 3 19 -2 24 -12 13 -23 25 -8 12
16 -7 13 -7 22 1 30 9 9 9 12 1 12 -7 0 -15 -5 -19 -11 -5 -8 -8 -8 -13 0 -4
6 -10 8 -14 4z"/>
<path d="M1380 384 c0 -33 2 -35 28 -32 24 3 27 7 24 33 -4 26 -2 28 12 16 9
-7 16 -23 17 -35 0 -17 3 -15 15 12 17 39 49 45 42 7 -3 -14 -1 -28 3 -31 5
-3 10 2 10 10 3 36 5 40 17 44 8 2 12 -7 12 -27 0 -24 4 -31 20 -31 11 0 20 5
20 11 0 5 -4 8 -9 4 -5 -3 -12 -1 -16 5 -3 5 1 10 9 10 9 0 16 5 16 11 0 5 -4
7 -10 4 -5 -3 -10 -2 -10 4 0 5 6 12 13 14 6 3 -15 6 -48 6 -35 1 -66 -4 -73
-11 -9 -9 -12 -9 -12 0 0 7 -16 12 -40 12 -39 0 -40 -1 -40 -36z m40 -8 c0
-11 -19 -15 -25 -6 -3 5 1 10 9 10 9 0 16 -2 16 -4z"/>
</g>
</svg>
